<svg width="24" height="30" viewBox="0 0 24 30" fill="none" xmlns="http://www.w3.org/2000/svg">
<path fill-rule="evenodd" clip-rule="evenodd" d="M11.211 29.775L12 28.5L11.211 29.775ZM12 28.5L12.7875 29.775C12.3045 30.075 11.6925 30.075 11.211 29.775L11.2065 29.7735L11.1975 29.7675L11.1675 29.748C11.0096 29.6486 10.8541 29.5456 10.701 29.439C10.2715 29.1434 9.85084 28.8353 9.4395 28.515C8.07812 27.4576 6.80814 26.2874 5.643 25.017C2.8995 22.0155 0 17.5425 0 12C0 5.1915 5.388 0 12 0C18.612 0 24 5.1915 24 12C24 17.5425 21.1005 22.0155 18.357 25.017C17.1923 26.2874 15.9229 27.4575 14.562 28.515C14.0344 28.9243 13.4915 29.3136 12.9345 29.682C12.9006 29.7042 12.8666 29.7262 12.8325 29.748L12.8025 29.7675L12.7935 29.7735H12.7905C12.7905 29.775 12.7875 29.7765 12 28.5ZM7.5 12C7.5 10.8065 7.97411 9.66193 8.81802 8.81802C9.66193 7.97411 10.8065 7.5 12 7.5C13.1935 7.5 14.3381 7.97411 15.182 8.81802C16.0259 9.66193 16.5 10.8065 16.5 12C16.5 13.1935 16.0259 14.3381 15.182 15.182C14.3381 16.0259 13.1935 16.5 12 16.5C10.8065 16.5 9.66193 16.0259 8.81802 15.182C7.97411 14.3381 7.5 13.1935 7.5 12Z" fill="#6C717B"/>
</svg>
