<svg width="122" height="122" viewBox="0 0 122 122" fill="none" xmlns="http://www.w3.org/2000/svg">
<path d="M50.2473 83.2063C49.573 84.2608 48.8238 85.3907 48.1495 86.4453C48.0745 86.596 47.7748 86.596 47.5501 86.596C46.2015 86.5206 44.9278 86.5206 43.6541 86.9726C42.6052 87.3492 42.4553 87.6505 42.5302 88.7051C42.5302 89.2324 42.6801 89.7597 42.6801 90.287C42.6801 91.6428 42.2305 92.1701 40.6572 92.4714C41.5562 91.7935 41.3315 91.1909 40.8819 90.5129C40.5822 90.061 40.6572 89.383 40.5822 88.8558C40.5073 88.4791 40.4324 88.0272 40.2825 87.8012C39.3085 86.5206 38.1847 85.6167 36.4615 85.6921C36.6113 84.8635 37.1358 84.6375 37.8101 84.5622C37.8101 84.4868 37.8101 84.4115 37.8101 84.3362C37.2856 84.1855 36.6862 83.9595 36.1618 83.8089C36.3116 83.0556 36.5364 82.905 37.6602 82.8296C37.0609 82.6037 36.5364 82.3024 35.937 82.0764C36.0119 81.4738 36.4615 81.0971 37.2107 81.3231C37.7352 81.4738 38.1847 81.7751 38.6342 82.0764C39.1587 82.453 39.6832 82.905 40.1327 83.3569C41.781 84.9388 43.4293 84.8635 45.1525 83.8089C45.7519 83.4323 46.3513 83.2816 47.0256 83.2816C47.9996 83.2816 49.0485 83.2063 50.2473 83.2063Z" fill="#6C717B"/>
<path d="M101.42 44.6392C98.2728 52.3979 92.2789 56.6161 84.2622 58.5746C84.1873 57.8213 84.1123 57.2187 84.1123 56.5408C84.1123 56.3901 84.412 56.2395 84.5619 56.1642C87.9334 55.3356 91.0052 53.9044 93.6276 51.6446C97.2988 48.5562 99.4716 44.6392 100.071 39.8184C100.146 38.9145 99.8462 37.9352 99.6214 37.0313C98.4226 33.1143 96.7743 29.4987 94.6765 25.8077C94.6765 26.109 94.6016 26.2596 94.6016 26.4103C94.6016 32.1351 92.8034 37.1819 89.0573 41.5509C86.6597 44.3379 83.7377 46.3718 80.2913 47.803C79.9166 47.9536 79.542 48.2549 79.2423 48.5562C76.9946 50.9667 74.4473 52.9251 71.4503 54.507C70.776 53.3771 70.4763 52.1719 70.4014 50.8913C70.3265 49.7614 70.4014 48.6315 70.5513 47.5016C70.5513 47.2003 70.851 46.9744 71.0757 46.7484C71.3005 46.5224 71.5253 46.3718 71.75 46.2211C72.6491 45.3172 73.3983 45.4678 73.9228 46.8237C74.1476 46.1458 74.3723 45.6185 74.4473 45.0912C74.5971 44.0366 74.0727 43.3587 73.0237 43.1327C72.2745 42.9821 71.6002 42.6808 70.9259 42.3041C69.1277 41.2496 67.1797 41.4755 65.3816 42.3795C62.7593 43.66 61.4856 45.9951 61.2608 48.7822C61.036 51.4186 60.9611 54.1304 60.8862 56.7668C60.8113 54.1304 60.7364 51.4186 60.5116 48.7822C60.2868 45.9951 59.0131 43.66 56.3908 42.3795C54.5927 41.4755 52.6447 41.3249 50.8465 42.3041C50.1722 42.6808 49.5728 42.9821 48.7487 43.1327C47.6998 43.3587 47.1753 44.0366 47.3251 45.0912C47.4001 45.6185 47.6248 46.1458 47.8496 46.8237C48.3741 45.4678 49.1233 45.3172 50.0224 46.2211C50.2471 46.4471 50.4719 46.5977 50.6967 46.7484C50.9214 46.9744 51.1462 47.2757 51.2211 47.5016C51.2961 48.6315 51.4459 49.7614 51.371 50.8913C51.2961 52.1719 50.9964 53.3771 50.3221 54.507C47.3251 52.9251 44.7778 51.042 42.5301 48.5562C42.2304 48.2549 41.8558 47.9536 41.4811 47.803C38.1096 46.3718 35.1127 44.3379 32.7151 41.5509C29.0439 37.1819 27.2458 32.1351 27.2458 26.4103C27.2458 26.2596 27.2458 26.109 27.1708 25.8077C25.073 29.4987 23.4247 33.1143 22.2259 37.0313C21.9262 37.9352 21.6265 38.9145 21.7764 39.8184C22.3758 44.6392 24.5485 48.5562 28.2198 51.6446C30.8421 53.9044 33.9139 55.3356 37.2854 56.1642C37.5102 56.2395 37.735 56.3901 37.735 56.5408C37.735 57.2187 37.6601 57.8213 37.5851 58.5746C29.6433 56.6161 23.6495 52.3979 20.5027 44.6392C19.9033 48.4809 19.9782 52.3225 20.5776 56.0888C20.7275 56.9174 20.7275 57.746 21.5516 58.3486C23.9492 60.1565 26.4216 61.663 29.1938 62.7176C31.9659 63.8475 34.813 64.6007 37.735 64.902C37.8848 64.902 38.1845 65.0527 38.1845 65.128C38.4093 65.8059 38.5591 66.4839 38.7839 67.2371C35.7121 67.0112 32.865 66.3332 30.0179 65.4293C27.1708 64.5254 24.5485 63.1695 21.9262 61.5123C22.0012 61.8136 22.0761 61.889 22.0761 62.0396C23.3498 65.354 25.073 68.367 27.3207 71.0788C27.7702 71.6061 28.2198 71.832 28.8191 71.9827C32.7901 73.0373 36.9108 73.5645 41.0316 73.6399C41.2564 73.6399 41.5561 73.7152 41.631 73.7905C42.0805 74.3931 42.5301 75.0711 43.0545 75.8243C39.1585 75.975 35.3375 75.6737 31.5913 74.9957C34.7381 77.8581 38.4093 79.5906 42.5301 80.4946C46.6508 81.3231 50.7716 81.1725 54.8924 80.1933C53.319 82.7543 51.6707 85.3154 50.0224 87.7259C48.5988 89.7597 46.8756 91.5675 44.7778 92.9234C43.5041 93.752 42.1554 94.3546 40.8068 95.1079C44.1034 101.737 53.4688 105.804 60.9611 105.578C68.4534 105.804 77.8937 101.737 81.1154 95.1079C79.7668 94.3546 78.4182 93.752 77.1445 92.9234C75.0466 91.5675 73.3234 89.7597 71.8999 87.7259C70.1767 85.3154 68.6033 82.7543 67.0299 80.1933C71.1507 81.1725 75.2714 81.3231 79.3922 80.4946C83.513 79.666 87.1842 77.9335 90.3309 74.9957C86.5848 75.6737 82.7637 75.975 78.8677 75.8243C79.3922 75.0711 79.7668 74.3931 80.2913 73.7905C80.3662 73.6399 80.6659 73.6399 80.8906 73.6399C85.0114 73.6399 89.1322 73.1126 93.1031 71.9827C93.7025 71.832 94.152 71.5307 94.6016 71.0788C96.8493 68.367 98.6474 65.354 99.8462 62.0396C99.9211 61.889 99.9211 61.8136 99.996 61.5123C97.3737 63.2448 94.7514 64.6007 91.9043 65.5046C89.0573 66.4839 86.2102 67.1618 83.1383 67.3125C83.3631 66.5592 83.513 65.8059 83.7377 65.2033C83.8126 65.0527 84.0374 64.9773 84.1873 64.9773C87.1093 64.6007 89.9563 63.8475 92.7285 62.7929C95.5006 61.663 98.048 60.1565 100.371 58.424C101.195 57.8213 101.195 56.9928 101.345 56.1642C102.019 52.3225 102.019 48.4809 101.42 44.6392ZM53.0942 44.7899C52.6447 44.7899 52.345 44.5639 52.2701 44.0366C52.2701 43.5094 52.5697 43.2834 53.2441 43.208C53.3939 43.434 53.7685 43.66 53.7685 43.9613C53.9184 44.4886 53.5437 44.7899 53.0942 44.7899ZM69.6522 44.112C69.6522 44.5639 69.3525 44.8652 68.828 44.8652C68.3036 44.8652 68.0039 44.5639 68.0788 44.0366C68.1537 43.7353 68.4534 43.434 68.6033 43.2834C69.3525 43.2834 69.6522 43.5847 69.6522 44.112Z" fill="#6C717B"/>
<path d="M71.6746 83.2063C72.3489 84.2608 73.0981 85.3907 73.7724 86.4453C73.8473 86.596 74.147 86.596 74.3718 86.596C75.7204 86.5206 76.9941 86.5206 78.2678 86.9726C79.3167 87.3492 79.4665 87.6505 79.3916 88.7051C79.3916 89.2324 79.2418 89.7597 79.2418 90.287C79.2418 91.6428 79.6913 92.1701 81.2647 92.4714C80.3656 91.7935 80.5904 91.1909 81.0399 90.5129C81.3396 90.061 81.2647 89.383 81.3396 88.8558C81.4146 88.4791 81.4895 88.0272 81.6393 87.8012C82.6133 86.5206 83.7372 85.6167 85.4604 85.6921C85.3105 84.8635 84.7861 84.6375 84.1118 84.5622C84.1118 84.4868 84.1118 84.4115 84.1118 84.3362C84.6362 84.1855 85.2356 83.9595 85.7601 83.8089C85.6102 83.0556 85.3855 82.905 84.2616 82.8296C84.861 82.6037 85.3855 82.3024 85.9849 82.0764C85.9099 81.4738 85.4604 81.0971 84.7112 81.3231C84.1867 81.4738 83.7372 81.7751 83.2876 82.0764C82.7632 82.453 82.2387 82.905 81.7892 83.3569C80.1409 84.9388 78.4926 84.8635 76.7693 83.8089C76.1699 83.4323 75.5706 83.2816 74.8962 83.2816C73.9222 83.2816 72.7984 83.2063 71.6746 83.2063Z" fill="#6C717B"/>
<path d="M70.7015 37.1067C70.6265 37.1067 70.2519 37.0313 69.7275 37.0313C69.8024 35.1482 69.5027 33.3403 68.5287 31.7585C67.8544 30.5533 66.9553 29.6494 65.8315 28.8961L63.9584 32.8131C63.6587 32.7377 63.359 32.7377 63.0593 32.6624C63.0593 32.3611 63.0593 32.1351 63.1342 31.8338C63.2841 30.4779 63.4339 29.0467 63.5838 27.6909C63.6587 27.0883 63.359 26.787 62.8345 26.787C62.1602 26.787 61.5608 26.787 60.8865 26.787C60.2122 26.787 59.6128 26.787 58.9385 26.787C58.3392 26.787 58.1144 27.0883 58.1893 27.6909C58.3392 29.0467 58.489 30.4779 58.6388 31.8338C58.6388 32.1351 58.7138 32.3611 58.7138 32.6624C58.4141 32.7377 58.1144 32.7377 57.8147 32.8131L56.0165 28.8961C54.8927 29.6494 53.9936 30.6286 53.3193 31.7585C52.3453 33.4157 52.0456 35.1482 52.1205 37.0313C51.5961 37.0313 51.2215 37.0313 51.1465 37.1067C50.4722 37.2573 50.0227 37.7846 50.0976 38.4625C50.1725 39.1405 50.6221 39.5924 51.3713 39.5924C53.9936 39.5924 57.2153 39.5924 59.8376 39.5924C60.2122 39.5924 60.5868 39.5924 60.9615 39.5924C61.3361 39.5924 61.7107 39.5924 62.0853 39.5924C64.7076 39.5924 67.9293 39.5924 70.5516 39.5924C71.2259 39.5924 71.7504 39.1405 71.8253 38.4625C71.8253 37.7093 71.4507 37.182 70.7015 37.1067Z" fill="#6C717B"/>
<circle cx="61" cy="61" r="60" stroke="#6C717B" stroke-width="2"/>
</svg>
