<svg width="52" height="52" viewBox="0 0 52 52" fill="none" xmlns="http://www.w3.org/2000/svg">
<path d="M21.4169 35.4652C21.1294 35.9147 20.8101 36.3963 20.5227 36.8458C20.4908 36.91 20.363 36.91 20.2672 36.91C19.6924 36.8779 19.1495 36.8779 18.6066 37.0705C18.1595 37.231 18.0957 37.3595 18.1276 37.8089C18.1276 38.0337 18.1915 38.2584 18.1915 38.4832C18.1915 39.0611 17.9999 39.2858 17.3292 39.4143C17.7125 39.1253 17.6167 38.8685 17.4251 38.5795C17.2973 38.3869 17.3292 38.0979 17.2973 37.8732C17.2654 37.7126 17.2334 37.52 17.1696 37.4237C16.7544 36.8779 16.2754 36.4926 15.5409 36.5247C15.6048 36.1715 15.8283 36.0752 16.1157 36.0431C16.1157 36.011 16.1157 35.9789 16.1157 35.9468C15.8922 35.8826 15.6367 35.7863 15.4132 35.722C15.4771 35.401 15.5729 35.3368 16.0519 35.3047C15.7964 35.2083 15.5729 35.0799 15.3174 34.9836C15.3493 34.7267 15.5409 34.5662 15.8603 34.6625C16.0838 34.7267 16.2754 34.8552 16.467 34.9836C16.6906 35.1441 16.9141 35.3368 17.1057 35.5294C17.8083 36.2036 18.5108 36.1715 19.2453 35.722C19.5008 35.5615 19.7563 35.4973 20.0437 35.4973C20.4588 35.4973 20.9059 35.4652 21.4169 35.4652Z" fill="#EDEFF2"/>
<path d="M43.228 19.0266C41.8868 22.3335 39.332 24.1315 35.9151 24.9662C35.8831 24.6452 35.8512 24.3883 35.8512 24.0994C35.8512 24.0352 35.9789 23.9709 36.0428 23.9388C37.4798 23.5857 38.7892 22.9756 39.9069 22.0125C41.4716 20.6961 42.3977 19.0266 42.6532 16.9718C42.6852 16.5865 42.5574 16.1691 42.4616 15.7838C41.9507 14.1143 41.2481 12.5732 40.3539 11C40.3539 11.1284 40.322 11.1926 40.322 11.2569C40.322 13.6969 39.5556 15.848 37.9589 17.7102C36.937 18.8981 35.6915 19.765 34.2225 20.375C34.0629 20.4392 33.9032 20.5677 33.7755 20.6961C32.8174 21.7235 31.7317 22.5583 30.4543 23.2325C30.1669 22.7509 30.0391 22.2372 30.0072 21.6914C29.9753 21.2098 30.0072 20.7282 30.0711 20.2466C30.0711 20.1182 30.1988 20.0219 30.2946 19.9255C30.3904 19.8292 30.4862 19.765 30.582 19.7008C30.9652 19.3155 31.2846 19.3797 31.5081 19.9577C31.6039 19.6687 31.6997 19.444 31.7317 19.2192C31.7955 18.7697 31.572 18.4808 31.1249 18.3844C30.8056 18.3202 30.5181 18.1918 30.2307 18.0313C29.4643 17.5818 28.634 17.6781 27.8676 18.0634C26.7499 18.6092 26.207 19.6045 26.1112 20.7924C26.0154 21.9161 25.9835 23.072 25.9515 24.1957C25.9196 23.072 25.8877 21.9161 25.7919 20.7924C25.6961 19.6045 25.1532 18.6092 24.0355 18.0634C23.269 17.6781 22.4387 17.6139 21.6723 18.0313C21.3849 18.1918 21.1294 18.3202 20.7782 18.3844C20.3311 18.4808 20.1075 18.7697 20.1714 19.2192C20.2033 19.444 20.2991 19.6687 20.3949 19.9577C20.6185 19.3797 20.9378 19.3155 21.321 19.7008C21.4168 19.7971 21.5126 19.8613 21.6085 19.9255C21.7043 20.0219 21.8001 20.1503 21.832 20.2466C21.8639 20.7282 21.9278 21.2098 21.8959 21.6914C21.8639 22.2372 21.7362 22.7509 21.4488 23.2325C20.1714 22.5583 19.0856 21.7556 18.1276 20.6961C17.9999 20.5677 17.8402 20.4392 17.6805 20.375C16.2435 19.765 14.9661 18.8981 13.9442 17.7102C12.3794 15.848 11.613 13.6969 11.613 11.2569C11.613 11.1926 11.613 11.1284 11.581 11C10.6869 12.5732 9.98433 14.1143 9.47338 15.7838C9.34564 16.1691 9.2179 16.5865 9.28177 16.9718C9.53725 19.0266 10.4633 20.6961 12.0281 22.0125C13.1458 22.9756 14.4551 23.5857 15.8922 23.9388C15.988 23.9709 16.0838 24.0352 16.0838 24.0994C16.0838 24.3883 16.0519 24.6452 16.0199 24.9662C12.6349 24.1315 10.0801 22.3335 8.73889 19.0266C8.48341 20.664 8.51534 22.3014 8.77082 23.9067C8.83469 24.2599 8.83469 24.6131 9.18597 24.8699C10.2079 25.6405 11.2617 26.2826 12.4433 26.7321C13.6248 27.2137 14.8384 27.5347 16.0838 27.6632C16.1477 27.6632 16.2754 27.7274 16.2754 27.7595C16.3712 28.0484 16.4351 28.3374 16.5309 28.6585C15.2216 28.5621 14.0081 28.2732 12.7946 27.8879C11.581 27.5026 10.4633 26.9247 9.34564 26.2184C9.37757 26.3468 9.40951 26.3789 9.40951 26.4431C9.95239 27.8558 10.6869 29.14 11.6449 30.2959C11.8365 30.5206 12.0281 30.6169 12.2836 30.6812C13.9761 31.1306 15.7325 31.3554 17.4889 31.3875C17.5847 31.3875 17.7125 31.4196 17.7444 31.4517C17.936 31.7086 18.1276 31.9975 18.3511 32.3186C16.6906 32.3828 15.0619 32.2544 13.4652 31.9654C14.8064 33.1854 16.3712 33.9239 18.1276 34.3092C19.884 34.6623 21.6404 34.5981 23.3968 34.1807C22.7262 35.2723 22.0236 36.364 21.321 37.3914C20.7143 38.2582 19.9798 39.0288 19.0856 39.6067C18.5427 39.9599 17.9679 40.2167 17.3931 40.5378C18.7982 43.3631 22.79 45.0969 25.9835 45.0006C29.1769 45.0969 33.2006 43.3631 34.5738 40.5378C33.999 40.2167 33.4242 39.9599 32.8813 39.6067C31.9871 39.0288 31.2526 38.2582 30.6459 37.3914C29.9114 36.364 29.2408 35.2723 28.5702 34.1807C30.3265 34.5981 32.0829 34.6623 33.8393 34.3092C35.5957 33.956 37.1605 33.2175 38.5017 31.9654C36.905 32.2544 35.2764 32.3828 33.6158 32.3186C33.8393 31.9975 33.999 31.7086 34.2225 31.4517C34.2545 31.3875 34.3822 31.3875 34.478 31.3875C36.2344 31.3875 37.9908 31.1627 39.6833 30.6812C39.9388 30.6169 40.1304 30.4885 40.322 30.2959C41.28 29.14 42.0465 27.8558 42.5574 26.4431C42.5894 26.3789 42.5894 26.3468 42.6213 26.2184C41.5036 26.9568 40.3859 27.5347 39.1724 27.92C37.9589 28.3374 36.7454 28.6263 35.436 28.6906C35.5318 28.3695 35.5957 28.0484 35.6915 27.7916C35.7235 27.7274 35.8193 27.6953 35.8831 27.6953C37.1286 27.5347 38.3421 27.2137 39.5236 26.7642C40.7052 26.2826 41.791 25.6405 42.781 24.902C43.1322 24.6452 43.1322 24.292 43.1961 23.9388C43.4835 22.3014 43.4835 20.664 43.228 19.0266ZM22.6304 19.0908C22.4387 19.0908 22.311 18.9945 22.2791 18.7697C22.2791 18.545 22.4068 18.4487 22.6942 18.4166C22.7581 18.5129 22.9178 18.6092 22.9178 18.7376C22.9816 18.9624 22.822 19.0908 22.6304 19.0908ZM29.6879 18.8018C29.6879 18.9945 29.5601 19.1229 29.3366 19.1229C29.113 19.1229 28.9853 18.9945 29.0172 18.7697C29.0492 18.6413 29.1769 18.5129 29.2408 18.4487C29.5601 18.4487 29.6879 18.5771 29.6879 18.8018Z" fill="#EDEFF2"/>
<path d="M30.5498 35.4652C30.8372 35.9147 31.1566 36.3963 31.444 36.8458C31.4759 36.91 31.6036 36.91 31.6994 36.91C32.2743 36.8779 32.8171 36.8779 33.36 37.0705C33.8071 37.231 33.871 37.3595 33.839 37.8089C33.839 38.0337 33.7752 38.2584 33.7752 38.4832C33.7752 39.0611 33.9668 39.2858 34.6374 39.4143C34.2542 39.1253 34.35 38.8685 34.5416 38.5795C34.6693 38.3869 34.6374 38.0979 34.6693 37.8732C34.7013 37.7126 34.7332 37.52 34.7971 37.4237C35.2122 36.8779 35.6912 36.4926 36.4257 36.5247C36.3619 36.1715 36.1383 36.0752 35.8509 36.0431C35.8509 36.011 35.8509 35.9789 35.8509 35.9468C36.0745 35.8826 36.3299 35.7863 36.5535 35.722C36.4896 35.401 36.3938 35.3368 35.9148 35.3047C36.1703 35.2083 36.3938 35.0799 36.6493 34.9836C36.6173 34.7267 36.4257 34.5662 36.1064 34.6625C35.8828 34.7267 35.6912 34.8552 35.4996 34.9836C35.2761 35.1441 35.0526 35.3368 34.8609 35.5294C34.1584 36.2036 33.4558 36.1715 32.7213 35.722C32.4659 35.5615 32.2104 35.4973 31.923 35.4973C31.5078 35.4973 31.0288 35.4652 30.5498 35.4652Z" fill="#EDEFF2"/>
<path d="M30.135 15.816C30.1031 15.816 29.9434 15.7839 29.7199 15.7839C29.7518 14.9813 29.6241 14.2107 29.2089 13.5365C28.9215 13.0228 28.5383 12.6375 28.0593 12.3165L27.2609 13.986C27.1332 13.9539 27.0055 13.9539 26.8777 13.9218C26.8777 13.7933 26.8777 13.697 26.9097 13.5686C26.9735 12.9907 27.0374 12.3807 27.1013 11.8028C27.1332 11.5459 27.0055 11.4175 26.7819 11.4175C26.4945 11.4175 26.239 11.4175 25.9516 11.4175C25.6642 11.4175 25.4087 11.4175 25.1213 11.4175C24.8659 11.4175 24.7701 11.5459 24.802 11.8028C24.8659 12.3807 24.9297 12.9907 24.9936 13.5686C24.9936 13.697 25.0255 13.7933 25.0255 13.9218C24.8978 13.9539 24.7701 13.9539 24.6423 13.986L23.8759 12.3165C23.3969 12.6375 23.0137 13.0549 22.7263 13.5365C22.3111 14.2428 22.1834 14.9813 22.2153 15.7839C21.9918 15.7839 21.8321 15.7839 21.8002 15.816C21.5128 15.8803 21.3211 16.105 21.3531 16.394C21.385 16.6829 21.5766 16.8755 21.896 16.8755C23.0137 16.8755 24.3868 16.8755 25.5046 16.8755C25.6642 16.8755 25.8239 16.8755 25.9836 16.8755C26.1432 16.8755 26.3029 16.8755 26.4626 16.8755C27.5803 16.8755 28.9535 16.8755 30.0712 16.8755C30.3586 16.8755 30.5821 16.6829 30.6141 16.394C30.6141 16.0729 30.4544 15.8481 30.135 15.816Z" fill="#EDEFF2"/>
<circle cx="26" cy="26" r="25" stroke="#EDEFF2" stroke-width="2"/>
</svg>
