<svg width="29" height="20" viewBox="0 0 29 20" fill="none" xmlns="http://www.w3.org/2000/svg">
<path d="M27.9702 3.12245C27.8076 2.51841 27.4892 1.96767 27.0469 1.52534C26.6045 1.08302 26.0538 0.764629 25.4497 0.602041C23.2253 1.82463e-07 14.2865 0 14.2865 0C14.2865 0 5.34771 1.82463e-07 3.12322 0.602041C2.51918 0.764629 1.96843 1.08302 1.52611 1.52534C1.08379 1.96767 0.765397 2.51841 0.602809 3.12245C0.187447 5.39109 -0.0141168 7.6937 0.000767792 10C-0.0141168 12.3063 0.187447 14.6089 0.602809 16.8776C0.765397 17.4816 1.08379 18.0323 1.52611 18.4747C1.96843 18.917 2.51918 19.2354 3.12322 19.398C5.34771 20 14.2865 20 14.2865 20C14.2865 20 23.2253 20 25.4497 19.398C26.0538 19.2354 26.6045 18.917 27.0469 18.4747C27.4892 18.0323 27.8076 17.4816 27.9702 16.8776C28.3855 14.6089 28.5871 12.3063 28.5722 10C28.5871 7.6937 28.3855 5.39109 27.9702 3.12245ZM11.4293 14.2857V5.71429L18.8477 10L11.4293 14.2857Z" fill="#EDEFF2"/>
</svg>
